P3
# 224-color Parrot logo
80 80
255
0 0 0 0 0 0 0 0 0 0 0 0 0 0 0 0 0 0 0 0 0 0 0 0 0 0 0 0 0 0 0 0 0 0 0 0 0 0 0 
0 0 0 0 0 0 0 0 0 0 0 0 0 0 0 0 0 0 0 0 0 0 0 0 0 0 0 0 0 0 0 0 0 0 0 0 0 0 0 
16 43 24 0 113 58 0 122 64 0 151 79 0 153 80 0 153 80 0 153 80 0 153 80 
0 154 80 0 122 64 0 120 62 0 120 62 8 85 44 8 85 44 11 73 39 16 49 29 0 14 7 
0 14 7 0 14 7 0 14 7 0 3 1 0 0 0 0 0 0 0 0 0 0 0 0 0 0 0 0 0 0 0 0 0 0 0 0 
0 0 0 0 0 0 0 0 0 0 0 0 0 0 0 0 0 0 0 0 0 0 0 0 0 0 0 0 0 0 0 0 0 0 0 0 0 0 0 
0 0 0 0 0 0 0 0 0 0 0 0 0 0 0 0 0 0 0 0 0 0 0 0 0 0 0 0 0 0 0 0 0 0 0 0 0 0 0 
0 0 0 0 0 0 0 0 0 0 0 0 0 0 0 0 0 0 0 0 0 0 0 0 0 0 0 0 0 0 0 0 0 0 0 0 0 0 0 
0 0 0 0 0 0 0 0 0 0 0 0 0 0 0 0 0 0 0 0 0 0 0 0 0 0 0 0 0 0 0 0 0 0 0 0 16 49 29 
0 113 58 0 158 82 0 161 84 0 161 84 0 160 83 0 155 81 0 153 80 0 152 79 
0 154 80 0 154 80 0 154 80 0 155 81 0 155 81 0 156 81 0 156 81 0 157 82 
0 152 79 0 146 76 0 133 70 0 122 64 0 120 62 7 100 53 11 73 39 16 43 24 
0 0 0 0 0 0 0 0 0 0 0 0 0 0 0 0 0 0 0 0 0 0 0 0 0 0 0 0 0 0 0 0 0 0 0 0 0 0 0 
0 0 0 0 0 0 0 0 0 0 0 0 0 0 0 0 0 0 0 0 0 0 0 0 0 0 0 0 0 0 0 0 0 0 0 0 0 0 0 
0 0 0 0 0 0 0 0 0 0 0 0 0 0 0 0 0 0 0 0 0 0 0 0 0 0 0 0 0 0 0 0 0 0 0 0 0 0 0 
0 0 0 0 0 0 0 0 0 0 0 0 0 0 0 0 0 0 0 0 0 0 0 0 0 0 0 0 0 0 0 0 0 0 0 0 0 0 0 
0 0 0 0 0 0 0 0 0 0 0 0 0 0 0 0 0 0 0 14 7 16 43 24 11 73 39 0 122 64 0 151 79 
0 153 80 0 153 80 0 153 80 0 153 80 0 153 80 0 153 80 0 153 80 0 153 80 
0 153 80 0 153 80 0 153 80 0 153 80 0 153 80 0 152 79 0 153 80 0 156 81 
0 158 82 0 161 84 3 130 68 8 85 44 0 14 7 0 11 5 0 0 0 0 0 0 0 0 0 0 0 0 0 0 0 
0 0 0 0 0 0 0 0 0 0 0 0 0 0 0 0 0 0 0 0 0 0 0 0 0 0 0 0 0 0 0 0 0 0 0 0 0 0 0 
0 0 0 0 0 0 0 0 0 0 0 0 0 0 0 0 0 0 0 0 0 0 0 0 0 0 0 0 0 0 0 0 0 0 0 0 0 0 0 
0 0 0 0 0 0 0 0 0 0 0 0 0 0 0 0 0 0 0 0 0 0 0 0 0 0 0 0 0 0 0 0 0 0 0 0 0 0 0 
0 0 0 0 0 0 0 0 0 0 0 0 0 0 0 0 0 0 0 0 0 0 0 0 0 14 7 0 133 70 0 154 80 
0 160 83 0 157 82 0 156 81 0 152 79 0 153 80 0 153 80 0 153 80 0 153 80 
0 153 80 0 153 80 0 153 80 0 153 80 0 153 80 0 153 80 0 153 80 0 153 80 
0 153 80 0 153 80 0 153 80 0 153 80 0 152 79 0 154 80 0 156 81 0 158 82 
0 133 70 11 73 39 0 0 0 0 0 0 0 0 0 0 0 0 0 0 0 0 0 0 0 0 0 0 0 0 0 0 0 0 0 0 
0 0 0 0 0 0 0 0 0 0 0 0 0 0 0 0 0 0 0 0 0 0 0 0 0 0 0 0 0 0 0 0 0 0 0 0 0 0 0 
0 0 0 0 0 0 0 0 0 0 0 0 0 0 0 0 0 0 0 0 0 0 0 0 0 0 0 0 0 0 0 0 0 0 0 0 0 0 0 
0 0 0 0 0 0 0 0 0 0 0 0 0 0 0 0 0 0 0 0 0 0 0 0 0 0 0 0 0 0 0 0 0 0 0 0 0 0 0 
0 0 0 0 0 0 0 0 0 16 49 29 0 113 58 0 113 58 0 113 58 0 113 58 0 155 81 
0 153 80 0 153 80 0 153 80 0 153 80 0 153 80 0 153 80 0 153 80 0 153 80 
0 153 80 0 153 80 0 153 80 0 153 80 0 153 80 0 153 80 0 153 80 0 153 80 
0 153 80 0 153 80 0 153 80 0 153 80 0 152 79 0 155 81 0 122 64 0 3 1 0 0 0 
0 0 0 0 0 0 0 0 0 0 0 0 0 0 0 0 0 0 0 0 0 0 0 0 0 0 0 0 0 0 0 0 0 0 0 0 0 0 0 
0 0 0 0 0 0 0 0 0 0 0 0 0 0 0 0 0 0 0 0 0 0 0 0 0 0 0 0 0 0 0 0 0 0 0 0 0 0 0 
0 0 0 0 0 0 0 0 0 0 0 0 0 0 0 0 0 0 0 0 0 0 0 0 0 0 0 0 0 0 0 0 0 0 0 0 0 0 0 
0 0 0 0 0 0 0 0 0 0 0 0 0 0 0 0 0 0 0 0 0 0 0 0 0 0 0 0 0 0 0 0 0 0 14 7 
7 100 53 0 133 70 0 153 80 0 153 80 0 153 80 0 153 80 0 153 80 0 153 80 
0 153 80 0 153 80 0 153 80 0 153 80 0 153 80 0 153 80 0 153 80 0 153 80 
0 153 80 0 153 80 0 153 80 0 153 80 0 153 80 0 153 80 0 153 80 0 153 80 
0 153 80 0 152 79 0 156 81 3 130 68 0 14 7 0 0 0 0 0 0 0 0 0 0 0 0 0 0 0 0 0 0 
0 0 0 0 0 0 0 0 0 0 0 0 0 0 0 0 0 0 0 0 0 0 0 0 0 0 0 0 0 0 0 0 0 0 0 0 0 0 0 
0 0 0 0 0 0 0 0 0 0 0 0 0 0 0 0 0 0 0 0 0 0 0 0 0 0 0 0 0 0 0 0 0 0 0 0 0 0 0 
0 0 0 0 0 0 0 0 0 0 0 0 0 0 0 0 0 0 0 0 0 0 0 0 0 0 0 0 0 0 0 0 0 0 0 0 0 0 0 
0 0 0 0 0 0 0 0 0 0 0 0 0 0 0 11 73 39 0 155 81 0 152 79 0 152 79 0 143 75 
0 152 79 0 153 80 0 153 80 0 152 79 0 153 80 0 153 80 0 153 80 0 153 80 
0 153 80 0 153 80 0 153 80 0 153 80 0 152 79 0 153 80 0 153 80 0 153 80 
0 153 80 0 153 80 0 153 80 0 153 80 0 153 80 0 153 80 0 153 80 0 152 79 
0 113 58 0 0 0 0 0 0 0 0 0 0 0 0 0 0 0 0 0 0 0 0 0 0 0 0 0 0 0 0 0 0 0 0 0 
0 0 0 0 0 0 0 0 0 0 0 0 0 0 0 0 0 0 0 0 0 0 0 0 0 0 0 0 0 0 0 0 0 0 0 0 0 0 0 
0 0 0 0 0 0 0 0 0 0 0 0 0 0 0 0 0 0 0 0 0 0 0 0 0 0 0 0 0 0 0 0 0 0 0 0 0 0 0 
0 0 0 0 0 0 0 0 0 0 0 0 0 0 0 0 0 0 0 0 0 0 0 0 0 0 0 0 0 0 0 0 0 0 0 0 0 0 0 
0 0 0 0 0 0 0 0 0 16 49 29 3 130 68 0 152 79 0 154 80 0 158 82 0 161 84 
0 145 76 0 122 64 0 120 62 7 100 53 7 100 53 0 122 64 0 133 70 0 153 80 
0 159 83 0 154 80 0 152 79 0 153 80 0 153 80 0 153 80 0 153 80 0 153 80 
0 153 80 0 153 80 0 153 80 0 153 80 0 160 83 11 73 39 0 0 0 0 0 0 0 0 0 0 0 0 
0 0 0 0 0 0 0 0 0 0 0 0 0 0 0 0 0 0 0 0 0 0 0 0 0 0 0 0 0 0 0 0 0 0 0 0 0 0 0 
0 0 0 0 0 0 0 0 0 0 0 0 0 0 0 0 0 0 0 0 0 0 0 0 0 0 0 0 0 0 0 0 0 0 0 0 0 0 0 
0 0 0 0 0 0 0 0 0 0 0 0 0 0 0 0 0 0 0 0 0 0 0 0 0 0 0 0 0 0 0 0 0 0 0 0 0 0 0 
0 0 0 0 0 0 0 0 0 0 0 0 0 0 0 0 0 0 0 0 0 0 0 0 16 49 29 0 153 80 0 154 80 
0 156 81 3 130 68 11 73 39 0 14 7 0 3 1 0 0 0 0 0 0 0 0 0 0 0 0 0 0 0 0 0 0 
0 3 1 16 49 29 0 143 75 0 155 81 0 152 79 0 153 80 0 153 80 0 153 80 0 153 80 
0 153 80 0 153 80 0 153 80 0 153 80 0 153 80 0 151 79 0 14 7 0 0 0 0 0 0 0 0 0 
0 0 0 0 0 0 0 0 0 0 0 0 0 0 0 0 0 0 0 0 0 0 0 0 0 0 0 0 0 0 0 0 0 0 0 0 0 0 0 
0 0 0 0 0 0 0 0 0 0 0 0 0 0 0 0 0 0 0 0 0 0 0 0 0 0 0 0 0 0 0 0 0 0 0 0 0 0 0 
0 0 0 0 0 0 0 0 0 0 0 0 0 0 0 0 0 0 0 0 0 0 0 0 0 0 0 0 0 0 0 0 0 0 0 0 0 0 0 
0 0 0 0 0 0 0 0 0 0 0 0 0 0 0 0 0 0 0 0 0 0 0 0 0 14 7 8 85 44 16 49 29 
0 3 1 0 11 5 16 43 24 11 73 39 7 100 53 0 133 70 0 145 76 0 161 84 0 161 84 
0 161 84 3 130 68 8 85 44 16 49 29 0 11 5 16 43 24 0 113 58 0 154 80 0 154 80 
0 153 80 0 153 80 0 153 80 0 153 80 0 153 80 0 153 80 0 153 80 0 153 80 
7 100 53 0 0 0 0 0 0 0 0 0 0 0 0 0 0 0 0 0 0 0 0 0 0 0 0 0 0 0 0 0 0 0 0 0 
0 0 0 0 0 0 0 0 0 0 0 0 0 0 0 0 0 0 0 0 0 0 0 0 0 0 0 0 0 0 0 0 0 0 0 0 0 0 0 
0 0 0 0 0 0 0 0 0 0 0 0 0 0 0 0 0 0 0 0 0 0 0 0 0 0 0 0 0 0 0 0 0 0 0 0 0 0 0 
0 0 0 0 0 0 0 0 0 0 0 0 0 0 0 0 0 0 0 0 0 0 0 0 0 0 0 0 0 0 0 0 0 0 0 0 0 0 0 
0 0 0 0 3 1 11 73 39 0 133 70 0 145 76 0 150 78 0 154 80 0 153 80 0 153 80 
0 153 80 0 152 79 0 153 80 0 153 80 0 153 80 0 153 80 0 153 80 0 145 76 
8 85 44 0 0 0 0 14 7 0 143 75 0 153 80 0 152 79 0 153 80 0 153 80 0 153 80 
0 153 80 0 153 80 0 153 80 0 159 83 0 14 7 0 0 0 0 0 0 0 0 0 0 0 0 0 0 0 0 0 0 
0 0 0 0 0 0 0 0 0 0 0 0 0 0 0 0 0 0 0 0 0 0 0 0 0 0 0 0 0 0 0 0 0 0 0 0 0 0 0 
0 0 0 0 0 0 0 0 0 0 0 0 0 0 0 0 0 0 0 0 0 0 0 0 0 0 0 0 0 0 0 0 0 0 0 0 0 0 0 
0 0 0 0 0 0 0 0 0 0 0 0 0 0 0 0 0 0 0 0 0 0 0 0 0 0 0 0 0 0 0 0 0 0 0 0 0 0 0 
0 0 0 0 0 0 0 14 7 16 49 29 0 113 58 0 161 84 0 158 82 0 153 80 0 153 80 
0 153 80 0 153 80 0 153 80 0 153 80 0 153 80 0 153 80 0 153 80 0 153 80 
0 153 80 0 153 80 0 153 80 0 152 79 0 156 81 0 150 78 16 43 24 0 0 0 7 100 53 
0 152 79 0 153 80 0 152 79 0 153 80 0 153 80 0 153 80 0 153 80 0 154 80 
0 113 58 0 0 0 0 0 0 0 0 0 0 0 0 0 0 0 0 0 0 0 0 0 0 0 0 0 0 0 0 0 0 0 0 0 
0 0 0 0 0 0 0 0 0 0 0 0 0 0 0 0 0 0 0 0 0 0 0 0 0 0 0 0 0 0 0 0 0 0 0 0 0 0 0 
0 0 0 0 0 0 0 0 0 0 0 0 0 0 0 0 0 0 0 0 0 0 0 0 0 0 0 0 0 0 0 0 0 0 0 0 0 0 0 
0 0 0 0 0 0 0 0 0 0 0 0 0 0 0 0 0 0 0 0 0 0 0 0 16 43 24 0 113 58 0 143 75 
0 154 80 0 154 80 0 153 80 0 153 80 0 153 80 0 153 80 0 153 80 0 153 80 
0 153 80 0 153 80 0 153 80 0 153 80 0 153 80 0 153 80 0 153 80 0 153 80 
0 153 80 0 153 80 0 153 80 0 153 80 0 154 80 0 120 62 0 0 0 16 43 24 0 159 83 
0 153 80 0 153 80 0 153 80 0 153 80 0 153 80 0 152 79 0 145 76 0 14 7 0 0 0 
0 0 0 0 0 0 0 0 0 0 0 0 0 0 0 0 0 0 0 0 0 0 0 0 0 0 0 0 0 0 0 0 0 0 0 0 0 0 0 
0 0 0 0 0 0 0 0 0 0 0 0 0 0 0 0 0 0 0 0 0 0 0 0 0 0 0 0 0 0 0 0 0 0 0 0 0 0 0 
0 0 0 0 0 0 0 0 0 0 0 0 0 0 0 0 0 0 0 0 0 0 0 0 0 0 0 0 0 0 0 0 0 0 0 0 0 0 0 
0 0 0 0 11 5 16 43 24 0 122 64 0 160 83 0 154 80 0 153 80 0 153 80 0 152 79 
0 153 80 0 152 80 0 152 80 0 151 80 0 152 80 0 153 79 0 152 80 0 152 80 
0 153 79 0 153 79 0 153 80 0 152 80 0 152 80 0 153 80 0 153 80 0 153 80 
0 153 80 0 153 80 0 153 80 0 154 80 0 150 78 0 14 7 0 14 7 0 143 75 0 154 80 
0 152 79 0 153 80 0 153 80 0 153 80 0 153 80 16 43 24 0 0 0 0 0 0 0 0 0 0 0 0 
0 0 0 0 0 0 0 0 0 0 0 0 0 0 0 0 0 0 0 0 0 0 0 0 0 0 0 0 0 0 0 0 0 0 0 0 0 0 0 
0 0 0 0 0 0 0 0 0 0 0 0 0 0 0 0 0 0 0 0 0 0 0 0 0 0 0 0 0 0 0 0 0 0 0 0 0 0 0 
0 0 0 0 0 0 0 0 0 0 0 0 0 0 0 0 0 0 0 0 0 0 0 0 0 0 0 0 0 0 8 85 44 0 133 70 
0 156 81 0 154 80 0 152 79 0 153 80 0 153 80 0 157 82 0 160 83 0 143 75 
40 167 76 113 176 60 177 182 53 103 170 61 0 150 81 0 150 81 103 170 61 
58 161 68 0 153 79 0 151 80 0 151 80 5 154 79 0 153 80 0 153 80 0 153 80 
0 153 80 0 153 80 0 153 80 0 152 79 0 153 80 0 146 76 16 49 29 0 11 5 0 133 70 
0 153 80 0 153 80 0 153 80 0 153 80 0 153 80 7 100 53 0 0 0 0 0 0 0 0 0 0 0 0 
0 0 0 0 0 0 0 0 0 0 0 0 0 0 0 0 0 0 0 0 0 0 0 0 0 0 0 0 0 0 0 0 0 0 0 0 0 0 0 
0 0 0 0 0 0 0 0 0 0 0 0 0 0 0 0 0 0 0 0 0 0 0 0 0 0 0 0 0 0 0 0 0 0 0 0 0 0 0 
0 0 0 0 0 0 0 0 0 0 0 0 0 0 0 0 0 0 0 0 0 0 11 5 11 73 39 0 150 78 0 155 81 
0 152 79 0 153 80 0 154 80 0 153 79 0 145 76 7 139 70 43 88 46 134 81 37 
220 191 46 255 224 44 255 219 44 229 207 47 75 162 69 165 179 52 247 214 45 
75 162 69 0 153 80 23 159 77 75 162 69 58 161 68 0 151 80 2 153 79 2 153 79 
0 153 80 0 153 80 0 153 80 0 153 80 0 153 80 0 153 80 0 152 79 0 154 80 
16 43 24 0 3 1 0 133 70 0 154 80 0 153 80 0 153 80 0 153 80 0 159 83 0 0 0 
0 0 0 0 0 0 0 0 0 0 0 0 0 0 0 0 3 1 0 14 7 0 14 7 16 49 29 0 14 7 0 11 5 
0 0 0 0 0 0 0 0 0 0 0 0 0 0 0 0 0 0 0 0 0 0 0 0 0 0 0 0 0 0 0 0 0 0 0 0 0 0 0 
0 0 0 0 0 0 0 0 0 0 0 0 0 0 0 0 0 0 0 0 0 0 0 0 0 0 0 0 0 0 0 0 0 11 73 39 
0 133 70 0 157 82 0 153 80 0 152 79 0 158 82 0 150 78 30 110 54 92 51 36 
136 4 37 186 95 36 220 191 46 255 221 44 255 228 45 247 212 45 254 217 44 
255 218 44 255 220 43 255 219 44 251 217 45 202 194 50 202 194 50 251 217 45 
40 167 76 14 156 77 103 170 61 122 174 62 5 154 79 0 151 80 0 151 80 0 153 79 
0 153 80 0 153 80 0 153 80 0 153 80 0 153 80 0 153 80 16 49 29 0 11 5 3 130 68 
0 152 79 0 153 80 0 152 79 0 159 83 16 43 24 0 0 0 0 0 0 0 0 0 0 0 0 0 14 7 
0 113 58 0 150 78 0 161 84 0 161 84 0 160 83 0 143 75 8 85 44 0 0 0 0 0 0 
0 0 0 0 0 0 0 0 0 0 0 0 0 0 0 0 0 0 0 0 0 0 0 0 0 0 0 0 0 0 0 0 0 0 0 0 0 0 0 
0 0 0 0 0 0 0 0 0 0 0 0 0 0 0 0 3 1 16 43 24 0 157 82 0 154 80 0 152 79 
0 153 80 0 151 79 2 150 78 61 77 45 148 5 34 172 6 37 170 6 37 186 95 36 
255 226 45 252 215 44 247 212 45 186 95 36 220 191 46 255 218 45 255 218 45 
252 215 44 247 212 45 255 218 45 255 218 45 255 218 45 254 217 45 255 220 43 
255 220 43 247 214 45 0 151 80 7 156 79 64 163 71 75 162 69 0 151 80 0 152 80 
0 153 79 0 153 80 0 153 80 0 153 80 0 152 79 0 151 79 0 14 7 0 14 7 0 150 78 
0 153 80 0 153 80 0 155 81 8 85 44 0 0 0 0 0 0 0 0 0 0 14 7 0 152 79 0 153 80 
61 77 45 92 51 36 61 77 45 0 145 76 0 153 80 2 150 78 11 73 39 0 0 0 0 0 0 
0 0 0 0 0 0 0 0 0 0 0 0 0 0 0 0 0 0 0 0 0 0 0 0 0 0 0 0 0 0 0 0 0 0 0 0 0 0 0 
0 0 0 0 0 0 0 0 0 16 43 24 0 120 62 0 159 83 0 153 80 0 156 81 0 160 83 
30 110 54 92 51 36 160 5 35 174 6 37 167 5 37 164 0 36 186 95 36 196 173 49 
186 95 36 174 6 37 186 95 36 252 215 44 255 228 45 255 226 45 196 173 49 
220 191 46 247 212 45 255 218 45 255 222 45 252 215 44 254 217 44 255 218 45 
255 218 44 251 217 45 237 211 46 251 217 45 113 176 60 0 150 81 0 150 81 
40 167 76 0 152 80 0 153 80 0 153 80 0 153 80 0 153 80 0 153 80 0 150 78 
0 14 7 0 14 7 0 143 75 0 152 79 0 152 79 0 122 64 0 0 0 0 0 0 0 3 1 0 143 75 
0 150 78 118 32 31 196 173 49 90 70 36 186 95 36 142 18 31 44 103 53 176 158 43 
220 191 46 13 0 3 0 0 0 0 0 0 0 0 0 0 0 0 0 0 0 0 0 0 0 0 0 0 0 0 0 0 0 0 0 0 
0 0 0 0 0 0 0 0 0 0 0 0 0 0 0 0 0 0 8 85 44 0 156 81 0 153 80 0 152 79 
0 152 79 7 100 53 95 5 23 166 5 36 167 6 37 167 6 37 166 5 37 167 6 37 
167 6 37 166 5 36 166 5 36 167 6 37 164 0 36 186 95 36 220 191 46 186 95 36 
166 5 36 196 173 49 255 219 45 254 217 44 254 217 45 196 173 49 220 191 46 
255 218 45 255 218 45 255 218 45 254 217 44 255 218 45 255 220 43 122 174 62 
122 174 62 208 203 51 17 157 77 0 152 80 0 152 80 0 153 79 0 153 80 0 153 80 
0 153 80 0 152 79 0 146 76 0 11 5 16 49 29 0 155 81 0 153 80 0 133 70 0 3 1 
0 0 0 0 133 70 0 160 83 92 51 36 186 95 36 220 191 46 0 0 0 86 55 31 166 6 36 
202 186 45 254 217 44 255 225 46 125 106 44 0 0 0 0 0 0 0 0 0 0 0 0 0 0 0 
0 0 0 0 0 0 0 0 0 0 0 0 0 0 0 0 0 0 0 0 0 0 0 0 0 0 0 0 14 7 0 122 64 0 161 84 
0 158 82 0 122 64 11 73 39 69 24 21 156 5 35 172 6 37 171 6 37 168 6 36 
136 4 37 148 5 34 167 6 37 167 6 37 166 5 37 168 6 36 166 5 37 167 6 37 
164 0 36 161 0 36 164 0 36 166 5 36 186 95 36 186 95 36 186 95 36 174 6 37 
220 191 46 255 228 45 255 226 45 247 212 45 220 191 46 255 219 45 255 218 45 
254 217 45 255 220 43 255 222 43 40 167 76 0 150 81 14 156 77 14 156 77 
0 152 80 0 153 80 0 153 80 0 153 80 0 153 80 0 154 80 0 143 75 0 0 0 11 73 39 
0 154 80 0 143 75 0 11 5 16 43 24 0 153 80 3 130 68 171 6 37 186 95 36 
255 228 45 176 158 43 196 173 49 186 95 36 255 226 45 255 218 45 255 221 44 
176 158 43 0 0 0 0 0 0 0 0 0 0 0 0 0 0 0 0 0 0 0 0 0 0 0 0 0 0 0 0 0 0 0 0 0 
0 0 0 0 0 0 0 3 1 0 146 76 0 154 80 0 113 58 16 43 24 31 9 9 163 5 38 166 5 36 
168 6 37 168 6 37 97 2 24 54 1 16 160 5 35 166 5 36 167 6 36 167 5 37 168 6 37 
148 5 34 168 6 36 167 6 37 167 6 37 167 6 37 167 6 37 167 6 37 166 5 36 
166 5 36 166 5 36 186 95 36 220 191 46 220 191 46 186 95 36 186 95 36 
254 217 44 255 218 45 254 217 45 255 218 45 254 217 45 255 219 44 147 184 56 
147 184 56 183 189 50 0 152 80 0 152 80 0 153 80 0 153 80 0 153 80 0 153 80 
0 152 79 0 153 80 0 120 62 0 0 0 0 120 62 0 159 83 0 14 7 7 100 53 0 153 80 
61 77 45 167 5 37 166 5 36 174 6 37 186 95 36 142 18 31 247 212 45 255 218 45 
255 218 45 255 225 46 134 81 37 0 0 0 0 0 0 0 0 0 0 0 0 0 0 0 0 0 0 0 0 0 
0 0 0 0 0 0 0 0 0 0 0 0 0 0 0 0 0 0 0 0 0 16 43 24 0 3 1 0 0 0 13 0 3 125 4 28 
113 5 27 95 5 23 54 1 16 0 0 0 78 3 19 174 6 37 168 6 36 174 6 37 156 5 35 
115 3 30 113 5 27 143 6 32 167 5 37 166 5 36 168 6 37 166 6 36 167 5 37 
167 6 37 167 6 37 167 6 37 167 6 37 164 0 36 161 0 36 161 0 36 186 95 36 
255 224 44 255 223 45 255 222 45 220 191 46 247 212 45 255 218 45 254 217 45 
255 220 43 237 211 46 5 154 79 0 152 80 0 152 80 0 153 80 0 153 80 0 153 80 
0 153 80 0 153 80 0 152 79 0 159 83 8 85 44 0 3 1 16 43 24 0 11 5 0 158 82 
0 153 80 90 70 36 167 6 37 167 6 37 166 5 36 164 0 36 134 81 37 176 158 43 
247 212 45 255 221 44 255 225 46 31 9 9 0 0 0 0 0 0 0 0 0 0 0 0 0 0 0 0 0 0 
0 0 0 0 0 0 0 0 0 0 0 0 0 0 0 0 0 0 0 0 0 0 0 0 0 0 0 0 0 0 0 0 0 0 0 0 0 0 0 
0 0 0 0 0 0 0 0 0 8 0 1 168 6 36 174 6 37 148 5 34 62 5 15 7 0 2 115 3 30 
165 5 35 167 6 37 167 6 37 172 6 37 139 4 30 115 3 30 169 6 37 167 6 37 
167 6 37 167 6 37 167 6 37 167 6 37 167 6 37 164 0 36 186 95 36 220 191 46 
186 95 36 174 6 37 220 191 46 254 217 44 254 217 45 255 218 45 255 218 44 
208 203 51 40 167 76 40 167 76 14 156 77 0 153 80 0 153 80 0 153 80 0 153 80 
0 153 80 0 153 80 0 152 79 0 153 80 7 100 53 11 73 39 0 143 75 0 153 80 
0 152 79 44 103 53 170 6 37 166 5 36 167 6 37 148 5 34 232 205 46 232 205 46 
35 27 16 176 158 43 176 158 43 0 0 0 0 0 0 0 0 0 0 0 0 0 0 0 0 0 0 0 0 0 0 0 0 
0 0 0 0 0 0 0 0 0 0 0 0 0 0 0 0 0 0 0 0 0 0 0 0 0 0 0 0 0 0 0 0 0 0 0 0 0 0 0 
0 0 0 0 0 0 0 0 0 7 0 2 8 0 1 0 0 0 0 0 0 80 1 21 167 6 36 160 5 35 143 6 32 
115 3 30 54 1 16 104 4 26 170 6 37 166 5 36 167 5 37 170 6 37 156 5 35 
168 6 38 167 6 37 167 6 37 167 6 37 164 0 36 161 0 36 164 0 36 196 173 49 
255 221 44 255 219 45 255 219 45 232 205 46 255 219 45 255 218 44 255 222 43 
233 209 46 14 156 77 0 153 80 0 153 80 0 153 80 0 153 80 0 153 80 0 153 80 
0 153 80 0 152 79 0 156 81 0 158 82 0 153 80 0 153 80 0 153 80 0 156 81 
118 32 31 171 6 37 167 5 37 134 81 37 255 228 45 255 219 45 202 186 45 
13 0 3 0 0 0 0 0 0 0 0 0 0 0 0 0 0 0 0 0 0 0 0 0 0 0 0 0 0 0 0 0 0 0 0 0 0 0 0 
0 0 0 0 0 0 0 0 0 0 0 0 0 0 0 0 0 0 0 0 0 0 0 0 0 0 0 0 0 0 0 0 0 0 0 0 0 0 0 
0 0 0 0 0 0 0 0 0 0 0 0 8 0 1 13 0 3 13 0 3 7 0 2 0 0 0 125 4 28 169 6 37 
169 6 37 174 6 37 169 6 37 97 2 24 163 5 38 167 6 37 167 6 37 167 6 37 
167 6 37 167 6 37 166 5 36 174 6 37 255 231 45 255 228 45 220 191 46 
186 95 36 247 212 45 255 218 45 255 218 45 255 221 43 23 159 77 0 152 80 
0 153 80 0 153 80 0 153 80 0 153 80 0 153 80 0 153 80 0 153 80 0 153 80 
0 153 80 0 153 80 0 153 80 0 153 80 0 153 80 0 153 80 7 139 70 142 18 31 
164 0 36 196 173 49 255 228 45 255 222 45 125 106 44 8 0 1 0 0 0 0 0 0 0 0 0 
0 0 0 0 0 0 0 0 0 0 0 0 0 0 0 0 0 0 0 0 0 0 0 0 0 0 0 0 0 0 0 0 0 0 0 0 0 0 0 
0 0 0 0 0 0 0 0 0 0 0 0 0 0 0 0 0 0 0 0 0 0 0 0 0 0 0 0 0 0 0 0 0 0 0 0 0 0 0 
0 0 0 0 0 0 0 0 0 0 0 0 7 0 2 136 4 37 128 4 30 102 2 25 55 2 14 13 0 3 148 5 34 
167 6 36 166 5 37 167 6 37 168 6 37 167 5 37 166 6 36 167 6 37 166 5 36 
174 6 37 174 6 37 172 6 37 252 215 44 255 218 45 254 217 44 255 218 45 
255 222 43 58 161 68 23 159 77 0 152 80 0 153 80 0 153 80 0 153 80 0 153 80 
0 153 80 0 153 80 0 153 80 0 153 80 0 153 80 0 153 80 0 153 80 0 153 80 
0 153 80 0 153 80 0 154 80 43 88 46 134 81 37 125 106 44 8 0 1 0 0 0 0 0 0 
0 0 0 0 0 0 0 0 0 0 0 0 0 0 0 0 0 0 0 0 0 0 0 0 0 0 0 0 0 0 0 0 0 0 0 0 0 0 0 
0 0 0 0 0 0 0 0 0 0 0 0 0 0 0 0 0 0 0 0 0 0 0 0 0 0 0 0 0 0 0 0 0 0 0 0 0 0 0 
0 0 0 0 0 0 0 0 0 0 0 0 0 0 0 0 0 0 0 0 0 0 0 0 0 0 0 0 0 0 0 0 0 13 0 3 
156 5 35 168 6 36 167 5 37 170 6 37 168 6 36 115 3 30 165 5 35 167 6 37 
167 6 37 166 5 36 166 5 36 171 6 37 232 205 46 255 219 45 254 217 44 
255 226 45 247 212 45 220 191 46 255 218 44 208 203 51 0 150 81 0 153 80 
0 153 80 0 153 80 0 153 80 0 153 80 0 153 80 0 153 80 0 153 80 0 153 80 
0 153 80 0 153 80 0 153 80 0 154 80 0 156 81 0 160 83 7 100 53 0 0 0 0 0 0 
0 0 0 0 0 0 0 0 0 0 0 0 0 0 0 0 0 0 0 0 0 0 0 0 0 0 0 0 0 0 0 0 0 0 0 0 0 0 0 
0 0 0 0 0 0 0 0 0 0 0 0 0 0 0 0 0 0 0 0 0 0 0 0 0 0 0 0 0 0 0 0 0 0 0 0 0 0 0 
0 0 0 0 0 0 0 0 0 0 0 0 0 0 0 0 0 0 0 0 0 0 0 0 0 0 0 0 0 0 0 0 0 0 0 0 0 0 0 
0 0 0 82 3 18 156 5 35 156 5 35 148 5 34 102 2 25 62 5 15 160 5 35 167 5 37 
166 6 36 167 6 37 167 6 37 167 6 37 174 6 37 247 212 45 247 212 45 232 205 46 
186 95 36 186 95 36 255 228 45 255 218 44 208 203 51 0 150 81 0 153 80 
0 153 80 0 153 80 0 153 80 0 153 80 0 153 80 0 153 80 0 153 80 0 153 80 
0 152 79 0 153 80 0 150 78 25 140 67 39 114 57 28 91 46 0 0 0 0 0 0 0 0 0 
0 0 0 0 0 0 0 0 0 0 0 0 0 0 0 0 0 0 0 0 0 0 0 0 0 0 0 0 0 0 0 0 0 0 0 0 0 0 0 
0 0 0 0 0 0 0 0 0 0 0 0 0 0 0 0 0 0 0 0 0 0 0 0 0 0 0 0 0 0 0 0 0 0 0 0 0 0 0 
0 0 0 0 0 0 0 0 0 0 0 0 0 0 0 0 0 0 0 0 0 0 0 0 0 0 0 0 0 0 0 0 0 0 0 0 0 0 0 
0 0 0 7 0 2 13 0 3 13 0 3 7 0 2 74 7 16 166 5 36 167 6 37 167 6 37 166 5 37 
169 6 37 166 5 36 167 6 37 167 6 37 174 6 37 174 6 37 161 0 36 186 95 36 
255 222 45 254 217 44 255 218 44 147 184 56 0 151 80 0 153 80 0 153 80 
0 153 80 0 153 80 0 153 80 0 153 80 0 153 80 0 153 80 0 152 79 0 155 81 
0 133 70 165 179 52 232 205 46 255 218 44 31 9 9 0 0 0 0 0 0 0 0 0 0 0 0 0 0 0 
0 0 0 0 0 0 0 0 0 0 0 0 0 0 0 0 0 0 0 0 0 0 0 0 0 0 0 0 0 0 0 0 0 0 0 0 0 0 0 
0 0 0 0 0 0 0 0 0 0 0 0 0 0 0 0 0 0 0 0 0 0 0 0 0 0 0 0 0 0 0 0 0 0 0 0 0 0 0 
0 0 0 0 0 0 0 0 0 0 0 0 0 0 0 0 0 0 0 0 0 0 0 0 0 0 0 0 0 0 0 0 0 0 0 0 0 0 0 
0 0 0 0 0 0 31 9 9 169 5 39 167 6 37 167 6 37 166 6 36 160 5 35 128 4 30 
169 5 39 166 6 36 167 6 37 167 6 37 166 5 36 186 95 36 255 231 45 254 217 44 
255 218 45 255 218 45 64 163 71 0 153 79 0 153 80 0 153 80 0 153 80 0 153 80 
0 153 80 0 153 80 0 153 80 0 152 79 0 153 80 0 122 64 196 173 49 255 219 45 
255 219 45 196 173 49 0 0 0 0 0 0 0 0 0 0 0 0 0 0 0 0 0 0 0 0 0 0 0 0 0 0 0 
0 0 0 0 0 0 0 0 0 0 0 0 0 0 0 0 0 0 0 0 0 0 0 0 0 0 0 0 0 0 0 0 0 0 0 0 0 0 0 
0 0 0 0 0 0 0 0 0 0 0 0 0 0 0 0 0 0 0 0 0 0 0 0 0 0 0 0 0 0 0 0 0 0 0 0 0 0 0 
0 0 0 0 0 0 0 0 0 0 0 0 0 0 0 0 0 0 0 0 0 0 0 0 0 0 0 0 0 0 0 0 0 0 0 0 97 2 24 
174 6 37 174 6 37 136 4 37 78 3 19 97 2 24 159 4 34 166 5 36 167 6 37 167 6 37 
167 6 37 174 6 37 247 212 45 255 218 45 255 223 45 255 218 45 186 95 36 
14 156 77 0 153 80 0 153 80 0 153 80 0 153 80 0 153 80 0 153 80 0 153 80 
0 152 79 0 154 80 7 139 70 202 186 45 255 223 45 254 217 44 255 225 46 
35 27 16 0 0 0 0 0 0 0 0 0 0 0 0 0 0 0 0 0 0 0 0 0 0 0 0 0 0 0 0 0 0 0 0 0 
0 0 0 0 0 0 0 0 0 0 0 0 0 0 0 0 0 0 0 0 0 0 0 0 0 0 0 0 0 0 0 0 0 0 0 0 0 0 0 
0 0 0 0 0 0 0 0 0 0 0 0 0 0 0 0 0 0 0 0 0 0 0 0 0 0 0 0 0 0 0 0 0 0 0 0 0 0 0 
0 0 0 0 0 0 0 0 0 0 0 0 0 0 0 0 0 0 0 0 0 0 0 0 0 0 0 0 0 0 0 0 0 0 0 0 0 0 0 
0 0 0 74 7 16 167 6 37 166 5 36 167 6 37 166 5 37 167 6 36 167 6 36 174 6 37 
247 212 45 247 212 45 196 173 49 174 6 37 61 77 45 0 156 81 0 153 80 0 153 80 
0 153 80 0 153 80 0 153 80 0 153 80 0 153 80 0 153 80 0 145 76 176 158 43 
255 218 45 255 218 45 255 218 45 176 158 43 0 0 0 0 0 0 0 0 0 0 0 0 0 0 0 
0 0 0 0 0 0 0 0 0 0 0 0 0 0 0 0 0 0 0 0 0 0 0 0 0 0 0 0 0 0 0 0 0 0 0 0 0 0 0 
0 0 0 0 0 0 0 0 0 0 0 0 0 0 0 0 0 0 0 0 0 0 0 0 0 0 0 0 0 0 0 0 0 0 0 0 0 0 0 
0 0 0 0 0 0 0 0 0 0 0 0 0 0 0 0 0 0 0 0 0 0 0 0 0 0 0 0 0 0 0 0 0 0 0 0 0 0 0 
0 0 0 0 0 0 0 0 0 0 0 0 0 0 0 0 0 0 0 0 0 74 7 16 174 6 37 167 5 37 167 6 37 
167 6 36 172 6 37 163 5 38 160 5 35 166 5 36 161 0 36 161 0 36 164 0 36 
142 18 31 0 152 78 0 153 80 0 153 80 0 153 80 0 153 80 0 153 80 0 153 80 
0 153 80 0 153 80 0 151 79 107 141 56 255 228 45 254 217 44 254 217 44 
255 225 46 57 37 24 0 0 0 0 0 0 0 0 0 0 0 0 0 0 0 0 0 0 0 0 0 0 0 0 0 0 0 
0 0 0 0 0 0 0 0 0 0 0 0 0 0 0 0 0 0 0 0 0 0 0 0 0 0 0 0 0 0 0 0 0 0 0 0 0 0 0 
0 0 0 0 0 0 0 0 0 0 0 0 0 0 0 0 0 0 0 0 0 0 0 0 0 0 0 0 0 0 0 0 0 0 0 0 0 0 0 
0 0 0 0 0 0 0 0 0 0 0 0 0 0 0 0 0 0 0 0 0 0 0 0 0 0 0 0 0 0 0 0 0 0 0 0 0 0 0 
0 0 0 0 0 0 13 0 3 156 5 35 167 5 37 166 5 37 167 6 36 169 6 37 97 2 24 
113 5 27 168 6 37 167 6 37 167 6 37 166 6 36 167 5 37 44 103 53 0 153 80 
0 152 79 0 153 80 0 153 80 0 153 80 0 153 80 0 153 80 0 153 80 0 152 79 
5 154 79 220 191 46 255 218 45 255 218 45 255 222 45 121 125 48 0 0 0 0 0 0 
0 0 0 0 0 0 0 0 0 0 0 0 0 0 0 0 0 0 0 0 0 0 0 0 0 0 0 0 0 0 0 0 0 0 0 0 0 0 0 
0 0 0 0 0 0 0 0 0 0 0 0 0 0 0 0 0 0 0 0 0 0 0 0 0 0 0 0 0 0 0 0 0 0 0 0 0 0 0 
0 0 0 0 0 0 0 0 0 0 0 0 0 0 0 0 0 0 0 0 0 0 0 0 0 0 0 0 0 0 0 0 0 0 0 0 0 0 0 
0 0 0 0 0 0 0 0 0 0 0 0 0 0 0 0 0 0 0 0 0 0 0 0 0 0 0 0 0 0 7 0 2 97 2 24 
125 4 28 115 3 30 80 1 21 0 0 0 91 3 20 174 6 37 166 5 36 167 6 37 167 6 37 
171 6 37 92 51 36 0 156 81 0 153 80 0 153 80 0 153 80 0 153 80 0 153 80 
0 153 80 0 153 80 0 153 80 0 156 81 57 118 51 255 218 44 255 218 45 254 217 44 
220 191 46 0 0 0 0 0 0 0 0 0 0 0 0 0 0 0 0 0 0 0 0 0 0 0 0 0 0 0 0 0 0 0 0 0 
0 0 0 0 0 0 0 0 0 0 0 0 0 0 0 0 0 0 0 0 0 0 0 0 0 0 0 0 0 0 0 0 0 0 0 0 0 0 0 
0 0 0 0 0 0 0 0 0 0 0 0 0 0 0 0 0 0 0 0 0 0 0 0 0 0 0 0 0 0 0 0 0 0 0 0 0 0 0 
0 0 0 0 0 0 0 0 0 0 0 0 0 0 0 0 0 0 0 0 0 0 0 0 0 0 0 0 0 0 0 0 0 0 0 0 0 0 0 
0 0 0 0 0 0 0 0 0 0 0 0 0 0 0 0 0 0 0 0 0 95 5 23 169 6 37 166 5 36 167 6 37 
167 6 37 167 6 37 142 18 31 2 150 78 0 153 80 0 153 80 0 153 80 0 153 80 
0 153 80 0 153 80 0 153 80 0 153 80 0 152 79 0 155 84 176 158 43 255 219 45 
254 217 44 255 231 45 37 15 12 0 0 0 0 0 0 0 0 0 0 0 0 0 0 0 0 0 0 0 0 0 0 0 0 
0 0 0 0 0 0 0 0 0 0 0 0 0 0 0 0 0 0 0 0 0 0 0 0 0 0 0 0 0 0 0 0 0 0 0 0 0 0 0 
0 0 0 0 0 0 0 0 0 0 0 0 0 0 0 0 0 0 0 0 0 0 0 0 0 0 0 0 0 0 0 0 0 0 0 0 0 0 0 
0 0 0 0 0 0 0 0 0 0 0 0 0 0 0 0 0 0 0 0 0 0 0 0 0 0 0 0 0 0 0 0 0 0 0 0 0 0 0 
0 0 0 0 0 0 0 0 0 0 0 0 0 0 0 0 0 0 0 0 0 0 0 0 0 0 0 62 5 15 172 6 37 
166 5 36 167 6 37 167 6 37 167 5 37 159 4 34 3 130 68 0 153 80 0 153 80 
0 153 80 0 153 80 0 153 80 0 153 80 0 153 80 0 153 80 0 153 80 0 153 80 
0 120 62 255 219 45 255 218 45 252 215 44 86 55 31 0 0 0 0 0 0 0 0 0 0 0 0 
0 0 0 0 0 0 0 0 0 0 0 0 0 0 0 0 0 0 0 0 0 0 0 0 0 0 0 0 0 0 0 0 0 0 0 0 0 0 0 
0 0 0 0 0 0 0 0 0 0 0 0 0 0 0 0 0 0 0 0 0 0 0 0 0 0 0 0 0 0 0 0 0 0 0 0 0 0 0 
0 0 0 0 0 0 0 0 0 0 0 0 0 0 0 0 0 0 0 0 0 0 0 0 0 0 0 0 0 0 0 0 0 0 0 0 0 0 0 
0 0 0 0 0 0 0 0 0 0 0 0 0 0 0 0 0 0 0 0 0 0 0 0 0 0 0 0 0 0 0 0 0 0 0 0 0 0 0 
0 0 0 160 5 35 166 5 37 167 6 37 166 5 37 167 6 36 165 5 35 30 110 54 
0 155 81 0 152 79 0 153 80 0 153 80 0 153 80 0 153 80 0 153 80 0 153 80 
0 153 80 0 153 80 0 153 80 67 147 57 255 223 45 255 231 45 57 37 24 0 0 0 
0 0 0 0 0 0 0 0 0 0 0 0 0 0 0 0 0 0 0 0 0 0 0 0 0 0 0 0 0 0 0 0 0 0 0 0 0 0 0 
0 0 0 0 0 0 0 0 0 0 0 0 0 0 0 0 0 0 0 0 0 0 0 0 0 0 0 0 0 0 0 0 0 0 0 0 0 0 0 
0 0 0 0 0 0 0 0 0 0 0 0 0 0 0 0 0 0 0 0 0 0 0 0 0 0 0 0 0 0 0 0 0 0 0 0 0 0 0 
0 0 0 0 0 0 0 0 0 0 0 0 0 0 0 0 0 0 0 0 0 0 0 0 0 0 0 0 0 0 0 0 0 0 0 0 0 0 0 
0 0 0 0 0 0 0 0 0 0 0 0 62 5 15 174 6 37 170 6 37 167 6 37 148 5 34 115 3 30 
28 91 46 0 154 80 0 152 79 0 153 80 0 153 80 0 153 80 0 153 80 0 153 80 
0 153 80 0 153 80 0 153 80 0 153 80 0 152 79 130 165 55 220 191 46 37 15 12 
0 0 0 0 0 0 0 0 0 0 0 0 0 0 0 0 0 0 0 0 0 0 0 0 0 0 0 0 0 0 0 0 0 0 0 0 0 0 0 
0 0 0 0 0 0 0 0 0 0 0 0 0 0 0 0 0 0 0 0 0 0 0 0 0 0 0 0 0 0 0 0 0 0 0 0 0 0 0 
0 0 0 0 0 0 0 0 0 0 0 0 0 0 0 0 0 0 0 0 0 0 0 0 0 0 0 0 0 0 0 0 0 0 0 0 0 0 0 
0 0 0 0 0 0 0 0 0 0 0 0 0 0 0 0 0 0 0 0 0 0 0 0 0 0 0 0 0 0 0 0 0 0 0 0 0 0 0 
0 0 0 0 0 0 0 0 0 0 0 0 0 0 0 0 0 0 8 0 1 74 7 16 74 7 16 36 0 7 13 0 3 8 85 44 
0 156 81 0 153 80 0 153 80 0 153 80 0 153 80 0 153 80 0 153 80 0 153 80 
0 153 80 0 153 80 0 153 80 0 153 80 0 152 79 66 93 42 13 0 3 0 0 0 0 0 0 0 0 0 
0 0 0 0 0 0 0 0 0 0 0 0 0 0 0 0 0 0 0 0 0 0 0 0 0 0 0 0 0 0 0 0 0 0 0 0 0 0 0 
0 0 0 0 0 0 0 0 0 0 0 0 0 0 0 0 0 0 0 0 0 0 0 0 0 0 0 0 0 0 0 0 0 0 0 0 0 0 0 
0 0 0 0 0 0 0 0 0 0 0 0 0 0 0 0 0 0 0 0 0 0 0 0 0 0 0 0 0 0 0 0 0 0 0 0 0 0 0 
0 0 0 0 0 0 0 0 0 0 0 0 0 0 0 0 0 0 0 0 0 0 0 0 0 0 0 0 0 0 0 0 0 0 0 0 0 0 0 
0 0 0 0 0 0 0 0 0 0 0 0 0 0 0 0 0 0 0 0 0 0 0 0 11 73 39 0 156 81 0 152 79 
0 153 80 0 153 80 0 153 80 0 153 80 0 153 80 0 153 80 0 153 80 0 153 80 
0 153 80 0 152 79 0 154 80 0 133 70 0 11 5 0 0 0 0 0 0 0 0 0 0 0 0 0 0 0 0 0 0 
0 0 0 0 0 0 0 0 0 0 0 0 0 0 0 0 0 0 0 0 0 0 0 0 0 0 0 0 0 0 0 0 0 0 0 0 0 0 0 
0 0 0 0 0 0 0 0 0 0 0 0 0 0 0 0 0 0 0 0 0 0 0 0 0 0 0 0 0 0 0 0 0 0 0 0 0 0 0 
0 0 0 0 0 0 0 0 0 0 0 0 0 0 0 0 0 0 0 0 0 0 0 0 0 0 0 0 0 0 0 0 0 0 0 0 0 0 0 
0 0 0 0 0 0 0 0 0 0 0 0 0 0 0 0 0 0 0 0 0 0 0 0 0 0 0 0 0 0 0 0 0 0 0 0 0 0 0 
0 0 0 0 0 0 0 0 0 0 0 0 0 0 0 11 73 39 0 157 82 0 153 80 0 153 80 0 153 80 
0 153 80 0 153 80 0 153 80 0 153 80 0 153 80 0 153 80 0 153 80 0 152 79 
0 156 81 0 113 58 0 11 5 0 0 0 0 0 0 0 0 0 0 0 0 0 0 0 0 0 0 0 0 0 0 0 0 0 0 0 
0 0 0 0 0 0 0 0 0 0 0 0 0 0 0 0 0 0 0 0 0 0 0 0 0 0 0 0 0 0 0 0 0 0 0 0 0 0 0 
0 0 0 0 0 0 0 0 0 0 0 0 0 0 0 0 0 0 0 0 0 0 0 0 0 0 0 0 0 0 0 0 0 0 0 0 0 0 0 
0 0 0 0 0 0 0 0 0 0 0 0 0 0 0 0 0 0 0 0 0 0 0 0 0 0 0 0 0 0 0 0 0 0 0 0 0 0 0 
0 0 0 0 0 0 0 0 0 0 0 0 0 0 0 0 0 0 0 0 0 0 0 0 0 0 0 0 0 0 0 0 0 0 0 0 0 0 0 
0 0 0 0 0 0 16 43 24 0 157 82 0 152 79 0 153 80 0 153 80 0 153 80 0 153 80 
0 153 80 0 153 80 0 153 80 0 153 80 0 153 80 0 153 80 0 151 79 7 100 53 
0 0 0 0 0 0 0 0 0 0 0 0 0 0 0 0 0 0 0 0 0 0 0 0 0 0 0 0 0 0 0 0 0 0 0 0 0 0 0 
0 0 0 0 0 0 0 0 0 0 0 0 0 0 0 0 0 0 0 0 0 0 0 0 0 0 0 0 0 0 0 0 0 0 0 0 0 0 0 
0 0 0 0 0 0 0 0 0 0 0 0 0 0 0 0 0 0 0 0 0 0 0 0 0 0 0 0 0 0 0 0 0 0 0 0 0 0 0 
0 0 0 0 0 0 0 0 0 0 0 0 0 0 0 0 0 0 0 0 0 0 0 0 0 0 0 0 0 0 0 0 0 0 0 0 0 0 0 
0 0 0 0 0 0 0 0 0 0 0 0 0 0 0 0 0 0 0 0 0 0 0 0 0 0 0 0 0 0 0 0 0 0 0 0 11 73 39 
0 159 83 0 152 79 0 153 80 0 153 80 0 153 80 0 153 80 0 153 80 0 153 80 
0 153 80 0 153 80 0 156 81 0 160 83 0 113 58 16 43 24 0 0 0 0 0 0 0 0 0 0 0 0 
0 0 0 0 0 0 0 0 0 0 0 0 0 0 0 0 0 0 0 0 0 0 0 0 0 0 0 0 0 0 0 0 0 0 0 0 0 0 0 
0 0 0 0 0 0 0 0 0 0 0 0 0 0 0 0 0 0 0 0 0 0 0 0 0 0 0 0 0 0 0 0 0 0 0 0 0 0 0 
0 0 0 0 0 0 0 0 0 0 0 0 0 0 0 0 0 0 0 0 0 0 0 0 0 0 0 0 0 0 0 0 0 0 0 0 0 0 0 
0 0 0 0 0 0 0 0 0 0 0 0 0 0 0 0 0 0 0 0 0 0 0 0 0 0 0 0 0 0 0 0 0 0 0 0 0 0 0 
0 0 0 0 0 0 0 0 0 0 0 0 0 0 0 0 0 0 0 0 0 0 0 0 11 73 39 0 158 82 0 153 80 
0 153 79 0 152 80 0 152 80 0 152 80 0 152 80 0 153 79 2 153 79 2 150 78 
2 150 78 30 110 54 0 14 7 0 0 0 0 0 0 0 0 0 0 0 0 0 0 0 0 0 0 0 0 0 0 0 0 
0 0 0 0 0 0 0 0 0 0 0 0 0 0 0 0 0 0 0 0 0 0 0 0 0 0 0 0 0 0 0 0 0 0 0 0 0 0 0 
0 0 0 0 0 0 0 0 0 0 0 0 0 0 0 0 0 0 0 0 0 0 0 0 0 0 0 0 0 0 0 0 0 0 0 0 0 0 0 
0 0 0 0 0 0 0 0 0 0 0 0 0 0 0 0 0 0 0 0 0 0 0 0 0 0 0 0 0 0 0 0 0 0 0 0 0 0 0 
0 0 0 0 0 0 0 0 0 0 0 0 0 0 0 0 0 0 0 0 0 0 0 0 0 0 0 0 0 0 0 0 0 0 0 0 0 0 0 
0 0 0 0 0 0 0 0 0 0 0 0 0 0 0 8 85 44 0 156 81 0 152 79 0 153 79 0 152 80 
5 154 79 103 170 61 113 176 60 122 174 62 183 189 50 176 158 43 142 18 31 
156 5 35 39 0 8 0 0 0 0 0 0 0 0 0 0 0 0 0 0 0 0 0 0 0 0 0 0 0 0 0 0 0 0 0 0 
0 0 0 0 0 0 0 0 0 0 0 0 0 0 0 0 0 0 0 0 0 0 0 0 0 0 0 0 0 0 0 0 0 0 0 0 0 0 0 
0 0 0 0 0 0 0 0 0 0 0 0 0 0 0 0 0 0 0 0 0 0 0 0 0 0 0 0 0 0 0 0 0 0 0 0 0 0 0 
0 0 0 0 0 0 0 0 0 0 0 0 0 0 0 0 0 0 0 0 0 0 0 0 0 0 0 0 0 0 0 0 0 0 0 0 0 0 0 
0 0 0 0 0 0 0 0 0 0 0 0 0 0 0 0 0 0 0 0 0 0 0 0 0 0 0 0 0 0 0 0 0 0 0 0 0 0 0 
0 0 0 0 0 0 0 0 0 7 100 53 0 154 80 0 153 80 0 153 80 0 152 80 14 156 77 
223 201 47 255 218 44 254 217 45 255 218 44 220 191 46 168 6 37 171 6 37 
36 0 7 0 0 0 0 0 0 0 0 0 0 0 0 0 0 0 0 0 0 0 0 0 0 0 0 0 0 0 0 0 0 0 0 0 0 0 0 
0 0 0 0 0 0 0 0 0 0 0 0 0 0 0 0 0 0 0 0 0 0 0 0 0 0 0 0 0 0 0 0 0 0 0 0 0 0 0 
0 0 0 0 0 0 0 0 0 0 0 0 0 0 0 0 0 0 0 0 0 0 0 0 0 0 0 0 0 0 0 0 0 0 0 0 0 0 0 
0 0 0 0 0 0 0 0 0 0 0 0 0 0 0 0 0 0 0 0 0 0 0 0 0 0 0 0 0 0 0 0 0 0 0 0 0 0 0 
0 0 0 0 0 0 0 0 0 0 0 0 0 0 0 0 0 0 0 0 0 0 0 0 0 0 0 0 0 0 0 0 0 0 0 0 0 0 0 
0 3 1 7 100 53 0 156 81 0 152 79 0 153 79 0 150 81 40 167 76 229 207 47 
255 218 44 254 217 45 255 222 45 220 191 46 174 6 37 160 5 35 40 1 11 0 0 0 
0 0 0 0 0 0 0 0 0 0 0 0 0 0 0 0 0 0 0 0 0 0 0 0 0 0 0 0 0 0 0 0 0 0 0 0 0 0 0 
0 0 0 0 0 0 0 0 0 0 0 0 0 0 0 0 0 0 0 0 0 0 0 0 0 0 0 0 0 0 0 0 0 0 0 0 0 0 0 
0 0 0 0 0 0 0 0 0 0 0 0 0 0 0 0 0 0 0 0 0 0 0 0 0 0 0 0 0 0 0 0 0 0 0 0 0 0 0 
0 0 0 0 0 0 0 0 0 0 0 0 0 0 0 0 0 0 0 0 0 0 0 0 0 0 0 0 0 0 0 0 0 0 0 0 0 0 0 
0 0 0 0 0 0 0 0 0 0 0 0 0 0 0 0 0 0 0 0 0 0 0 0 0 0 0 0 0 0 0 0 0 0 0 0 0 133 70 
0 153 80 0 152 79 0 153 79 0 152 80 75 162 69 247 214 45 255 218 44 254 217 44 
255 222 45 220 191 46 169 6 37 156 5 35 13 0 3 0 0 0 0 0 0 0 0 0 0 0 0 0 0 0 
0 0 0 0 0 0 0 0 0 0 0 0 0 0 0 0 0 0 0 0 0 0 0 0 0 0 0 0 0 0 0 0 0 0 0 0 0 0 0 
0 0 0 0 0 0 0 0 0 0 0 0 0 0 0 0 0 0 0 0 0 0 0 0 0 0 0 0 0 0 0 0 0 0 0 0 0 0 0 
0 0 0 0 0 0 0 0 0 0 0 0 0 0 0 0 0 0 0 0 0 0 0 0 0 0 0 0 0 0 0 0 0 0 0 0 0 0 0 
0 0 0 0 0 0 0 0 0 0 0 0 0 0 0 0 0 0 0 0 0 0 0 0 0 0 0 0 0 0 0 0 0 0 0 0 0 0 0 
0 0 0 0 0 0 0 0 0 0 0 0 0 0 0 0 0 0 0 0 0 0 14 7 0 143 75 0 155 81 0 153 80 
0 153 79 0 152 80 103 170 61 255 218 44 254 217 45 254 217 44 255 221 44 
186 95 36 164 0 36 148 5 34 31 9 9 0 0 0 0 0 0 0 0 0 0 0 0 0 0 0 0 0 0 0 0 0 
0 0 0 0 0 0 0 0 0 0 0 0 0 0 0 0 0 0 0 0 0 0 0 0 0 0 0 0 0 0 0 0 0 0 0 0 0 0 0 
0 0 0 0 0 0 0 0 0 0 0 0 0 0 0 0 0 0 0 0 0 0 0 0 0 0 0 0 0 0 0 0 0 0 0 0 0 0 0 
0 0 0 0 0 0 0 0 0 0 0 0 0 0 0 0 0 0 0 0 0 0 0 0 0 0 0 0 0 0 0 0 0 0 0 0 0 0 0 
0 0 0 0 0 0 0 0 0 0 0 0 0 0 0 0 0 0 0 0 0 0 0 0 0 0 0 0 0 0 0 0 0 0 0 0 0 0 0 
0 0 0 0 0 0 0 0 0 0 0 0 0 0 0 16 43 24 0 145 76 0 153 80 0 152 79 0 153 79 
0 150 81 165 179 52 254 217 45 255 218 44 255 218 45 255 231 45 186 95 36 
166 5 36 148 5 34 13 0 3 0 0 0 0 0 0 0 0 0 0 0 0 0 0 0 0 0 0 0 0 0 0 0 0 0 0 0 
0 0 0 0 0 0 0 0 0 0 0 0 0 0 0 0 0 0 0 0 0 0 0 0 0 0 0 0 0 0 0 0 0 0 0 0 0 0 0 
0 0 0 0 0 0 0 0 0 0 0 0 0 0 0 0 0 0 0 0 0 0 0 0 0 0 0 0 0 0 0 0 0 0 0 0 0 0 0 
0 0 0 0 0 0 0 0 0 0 0 0 0 0 0 0 0 0 0 0 0 0 0 0 0 0 0 0 0 0 0 0 0 0 0 0 0 0 0 
0 0 0 0 0 0 0 0 0 0 0 0 0 0 0 0 0 0 0 0 0 0 0 0 0 0 0 0 0 0 0 0 0 0 0 0 0 0 0 
0 0 0 0 0 0 0 0 0 16 43 24 0 159 83 0 152 79 0 153 79 0 152 80 14 156 77 
202 194 50 255 220 43 254 217 45 255 219 45 247 212 45 186 95 36 164 0 36 
127 4 30 0 0 0 0 0 0 0 0 0 0 0 0 0 0 0 0 0 0 0 0 0 0 0 0 0 0 0 0 0 0 0 0 0 
0 0 0 0 0 0 0 0 0 0 0 0 0 0 0 0 0 0 0 0 0 0 0 0 0 0 0 0 0 0 0 0 0 0 0 0 0 0 0 
0 0 0 0 0 0 0 0 0 0 0 0 0 0 0 0 0 0 0 0 0 0 0 0 0 0 0 0 0 0 0 0 0 0 0 0 0 0 0 
0 0 0 0 0 0 0 0 0 0 0 0 0 0 0 0 0 0 0 0 0 0 0 0 0 0 0 0 0 0 0 0 0 0 0 0 0 0 0 
0 0 0 0 0 0 0 0 0 0 0 0 0 0 0 0 0 0 0 0 0 0 0 0 0 0 0 0 0 0 0 0 0 0 0 0 0 0 0 
0 0 0 0 0 0 11 73 39 0 152 79 0 153 80 0 153 80 0 152 80 23 159 77 223 201 47 
255 218 44 254 217 45 255 218 44 247 212 45 174 6 37 174 6 37 78 3 19 0 0 0 
0 0 0 0 0 0 0 0 0 0 0 0 0 0 0 0 0 0 0 0 0 0 0 0 0 0 0 0 0 0 0 0 0 0 0 0 0 0 0 
0 0 0 0 0 0 0 0 0 0 0 0 0 0 0 0 0 0 0 0 0 0 0 0 0 0 0 0 0 0 0 0 0 0 0 0 0 0 0 
0 0 0 0 0 0 0 0 0 0 0 0 0 0 0 0 0 0 0 0 0 0 0 0 0 0 0 0 0 0 0 0 0 0 0 0 0 0 0 
0 0 0 0 0 0 0 0 0 0 0 0 0 0 0 0 0 0 0 0 0 0 0 0 0 0 0 0 0 0 0 0 0 0 0 0 0 0 0 
0 0 0 0 0 0 0 0 0 0 0 0 0 0 0 0 0 0 0 0 0 0 0 0 0 0 0 0 0 0 0 0 0 0 0 0 11 73 39 
0 155 81 0 152 79 0 153 79 0 152 80 40 167 76 247 214 45 255 218 44 254 217 44 
255 219 45 220 191 46 174 6 37 163 5 38 54 1 16 0 0 0 0 0 0 0 0 0 0 0 0 0 0 0 
0 0 0 0 0 0 0 0 0 0 0 0 0 0 0 0 0 0 0 0 0 0 0 0 0 0 0 0 0 0 0 0 0 0 0 0 0 0 0 
0 0 0 0 0 0 0 0 0 0 0 0 0 0 0 0 0 0 0 0 0 0 0 0 0 0 0 0 0 0 0 0 0 0 0 0 0 0 0 
0 0 0 0 0 0 0 0 0 0 0 0 0 0 0 0 0 0 0 0 0 0 0 0 0 0 0 0 0 0 0 0 0 0 0 0 0 0 0 
0 0 0 0 0 0 0 0 0 0 0 0 0 0 0 0 0 0 0 0 0 0 0 0 0 0 0 0 0 0 0 0 0 0 0 0 0 0 0 
0 0 0 0 0 0 0 0 0 0 0 0 0 0 0 0 0 0 0 0 0 0 0 0 7 100 53 0 156 81 0 153 80 
0 153 79 0 150 81 103 170 61 251 217 45 255 218 44 254 217 44 255 231 45 
186 95 36 169 6 37 156 5 35 36 0 7 0 0 0 0 0 0 0 0 0 0 0 0 0 0 0 0 0 0 0 0 0 
0 0 0 0 0 0 0 0 0 0 0 0 0 0 0 0 0 0 0 0 0 0 0 0 0 0 0 0 0 0 0 0 0 0 0 0 0 0 0 
0 0 0 0 0 0 0 0 0 0 0 0 0 0 0 0 0 0 0 0 0 0 0 0 0 0 0 0 0 0 0 0 0 0 0 0 0 0 0 
0 0 0 0 0 0 0 0 0 0 0 0 0 0 0 0 0 0 0 0 0 0 0 0 0 0 0 0 0 0 0 0 0 0 0 0 0 0 0 
0 0 0 0 0 0 0 0 0 0 0 0 0 0 0 0 0 0 0 0 0 0 0 0 0 0 0 0 0 0 0 0 0 0 0 0 0 0 0 
0 0 0 0 0 0 0 0 0 0 0 0 0 0 0 0 0 0 0 113 58 0 155 81 0 153 79 0 152 80 
0 153 79 122 174 62 255 221 43 254 217 45 255 218 45 252 215 44 186 95 36 
164 0 36 148 5 34 7 0 2 0 0 0 0 0 0 0 0 0 0 0 0 0 0 0 0 0 0 0 0 0 0 0 0 0 0 0 
0 0 0 0 0 0 0 0 0 0 0 0 0 0 0 0 0 0 0 0 0 0 0 0 0 0 0 0 0 0 0 0 0 0 0 0 0 0 0 
0 0 0 0 0 0 0 0 0 0 0 0 0 0 0 0 0 0 0 0 0 0 0 0 0 0 0 0 0 0 0 0 0 0 0 0 0 0 0 
0 0 0 0 0 0 0 0 0 0 0 0 0 0 0 0 0 0 0 0 0 0 0 0 0 0 0 0 0 0 0 0 0 0 0 0 0 0 0 
0 0 0 0 0 0 0 0 0 0 0 0 0 0 0 0 0 0 0 0 0 0 0 0 0 0 0 0 0 0 0 0 0 0 0 0 0 0 0 
0 0 0 0 0 0 0 0 0 0 11 5 0 122 64 0 156 81 0 152 79 0 152 80 7 156 79 183 189 50 
255 219 44 254 217 45 255 219 45 232 205 46 186 95 36 174 6 37 95 5 23 0 0 0 
0 0 0 0 0 0 0 0 0 0 0 0 0 0 0 0 0 0 0 0 0 0 0 0 0 0 0 0 0 0 0 0 0 0 0 0 0 0 0 
0 0 0 0 0 0 0 0 0 0 0 0 0 0 0 0 0 0 0 0 0 0 0 0 0 0 0 0 0 0 0 0 0 0 0 0 0 0 0 
0 0 0 0 0 0 0 0 0 0 0 0 0 0 0 0 0 0 0 0 0 0 0 0 0 0 0 0 0 0 0 0 0 0 0 0 0 0 0 
0 0 0 0 0 0 0 0 0 0 0 0 0 0 0 0 0 0 0 0 0 0 0 0 0 0 0 0 0 0 0 0 0 0 0 0 0 0 0 
0 0 0 0 0 0 0 0 0 0 0 0 0 0 0 0 0 0 0 0 0 0 0 0 0 0 0 0 0 0 0 0 0 0 0 0 0 14 7 
0 150 78 0 153 80 0 153 79 0 152 80 20 160 78 229 207 47 255 218 44 254 217 44 
255 218 44 232 205 46 172 6 37 163 5 38 62 5 15 0 0 0 0 0 0 0 0 0 0 0 0 0 0 0 
0 0 0 0 0 0 0 0 0 0 0 0 0 0 0 0 0 0 0 0 0 0 0 0 0 0 0 0 0 0 0 0 0 0 0 0 0 0 0 
0 0 0 0 0 0 0 0 0 0 0 0 0 0 0 0 0 0 0 0 0 0 0 0 0 0 0 0 0 0 0 0 0 0 0 0 0 0 0 
0 0 0 0 0 0 0 0 0 0 0 0 0 0 0 0 0 0 0 0 0 0 0 0 0 0 0 0 0 0 0 0 0 0 0 0 0 0 0 
0 0 0 0 0 0 0 0 0 0 0 0 0 0 0 0 0 0 0 0 0 0 0 0 0 0 0 0 0 0 0 0 0 0 0 0 0 0 0 
0 0 0 0 0 0 0 0 0 0 0 0 0 0 0 0 0 0 0 0 0 0 0 0 16 43 24 0 133 70 0 153 80 
0 153 79 0 151 80 64 163 71 233 209 46 255 218 44 255 218 45 255 228 45 
186 95 36 164 0 36 139 3 31 36 0 7 0 0 0 0 0 0 0 0 0 0 0 0 0 0 0 0 0 0 0 0 0 
0 0 0 0 0 0 0 0 0 0 0 0 0 0 0 0 0 0 0 0 0 0 0 0 0 0 0 0 0 0 0 0 0 0 0 0 0 0 0 
0 0 0 0 0 0 0 0 0 0 0 0 0 0 0 0 0 0 0 0 0 0 0 0 0 0 0 0 0 0 0 0 0 0 0 0 0 0 0 
0 0 0 0 0 0 0 0 0 0 0 0 0 0 0 0 0 0 0 0 0 0 0 0 0 0 0 0 0 0 0 0 0 0 0 0 0 0 0 
0 0 0 0 0 0 0 0 0 0 0 0 0 0 0 0 0 0 0 0 0 0 0 0 0 0 0 0 0 0 0 0 0 0 0 0 0 0 0 
0 0 0 0 0 0 0 0 0 0 0 0 0 0 0 0 0 0 16 43 24 0 151 79 0 153 80 0 153 79 
0 152 80 64 163 71 255 218 44 255 218 44 254 217 44 254 217 44 186 95 36 
167 5 37 128 4 30 7 0 2 0 0 0 0 0 0 0 0 0 0 0 0 0 0 0 0 0 0 0 0 0 0 0 0 0 0 0 
0 0 0 0 0 0 0 0 0 0 0 0 0 0 0 0 0 0 0 0 0 0 0 0 0 0 0 0 0 0 0 0 0 0 0 0 0 0 0 
0 0 0 0 0 0 0 0 0 0 0 0 0 0 0 0 0 0 0 0 0 0 0 0 0 0 0 0 0 0 0 0 0 0 0 0 0 0 0 
0 0 0 0 0 0 0 0 0 0 0 0 0 0 0 0 0 0 0 0 0 0 0 0 0 0 0 0 0 0 0 0 0 0 0 0 0 0 0 
0 0 0 0 0 0 0 0 0 0 0 0 0 0 0 0 0 0 0 0 0 0 0 0 0 0 0 0 0 0 0 0 0 0 0 0 0 0 0 
0 0 0 0 0 0 0 0 0 0 0 0 11 73 39 0 152 79 0 153 80 0 152 80 0 152 80 147 184 56 
255 222 43 254 217 45 255 222 45 220 191 46 174 6 37 169 5 39 78 3 19 0 3 1 
0 0 0 0 0 0 0 0 0 0 0 0 0 0 0 0 0 0 0 0 0 0 0 0 0 0 0 0 0 0 0 0 0 0 0 0 0 0 0 
0 0 0 0 0 0 0 0 0 0 0 0 0 0 0 0 0 0 0 0 0 0 0 0 0 0 0 0 0 0 0 0 0 0 0 0 0 0 0 
0 0 0 0 0 0 0 0 0 0 0 0 0 0 0 0 0 0 0 0 0 0 0 0 0 0 0 0 0 0 0 0 0 0 0 0 0 0 0 
0 0 0 0 0 0 0 0 0 0 0 0 0 0 0 0 0 0 0 0 0 0 0 0 0 0 0 0 0 0 0 0 0 0 0 0 0 0 0 
0 0 0 0 0 0 0 0 0 0 0 0 0 0 0 0 0 0 0 0 0 0 0 0 0 0 0 0 0 0 0 0 0 0 0 0 0 0 0 
11 73 39 0 153 80 0 153 80 0 153 79 0 152 80 202 194 50 255 218 44 254 217 45 
255 223 45 220 191 46 170 6 37 156 5 35 13 0 3 0 0 0 0 0 0 0 0 0 0 0 0 0 0 0 
0 0 0 0 0 0 0 0 0 0 0 0 0 0 0 0 0 0 0 0 0 0 0 0 0 0 0 0 0 0 0 0 0 0 0 0 0 0 0 
0 0 0 0 0 0 0 0 0 0 0 0 0 0 0 0 0 0 0 0 0 0 0 0 0 0 0 0 0 0 0 0 0 0 0 0 0 0 0 
0 0 0 0 0 0 0 0 0 0 0 0 0 0 0 0 0 0 0 0 0 0 0 0 0 0 0 0 0 0 0 0 0 0 0 0 0 0 0 
0 0 0 0 0 0 0 0 0 0 0 0 0 0 0 0 0 0 0 0 0 0 0 0 0 0 0 0 0 0 0 0 0 0 0 0 0 0 0 
0 0 0 0 0 0 0 0 0 0 0 0 0 0 0 0 0 0 0 0 0 0 0 0 0 0 0 7 100 53 0 161 84 
0 152 79 0 151 80 23 159 77 208 203 51 255 218 44 255 219 45 254 217 45 
186 95 36 164 0 36 125 4 28 13 0 3 0 0 0 0 0 0 0 0 0 0 0 0 0 0 0 0 0 0 0 0 0 
0 0 0 0 0 0 0 0 0 0 0 0 0 0 0 0 0 0 0 0 0 0 0 0 0 0 0 0 0 0 0 0 0 0 0 0 0 0 0 
0 0 0 0 0 0 0 0 0 0 0 0 0 0 0 0 0 0 0 0 0 0 0 0 0 0 0 0 0 0 0 0 0 0 0 0 0 0 0 
0 0 0 0 0 0 0 0 0 0 0 0 0 0 0 0 0 0 0 0 0 0 0 0 0 0 0 0 0 0 0 0 0 0 0 0 0 0 0 
0 0 0 0 0 0 0 0 0 0 0 0 0 0 0 0 0 0 0 0 0 0 0 0 0 0 0 0 0 0 0 0 0 0 0 0 0 0 0 
0 0 0 0 0 0 0 0 0 0 0 0 0 0 0 0 0 0 0 3 1 0 113 58 0 154 80 0 152 79 0 152 80 
40 167 76 237 211 46 255 218 44 255 218 45 247 212 45 174 6 37 174 6 37 
80 1 21 0 0 0 0 0 0 0 0 0 0 0 0 0 0 0 0 0 0 0 0 0 0 0 0 0 0 0 0 0 0 0 0 0 
0 0 0 0 0 0 0 0 0 0 0 0 0 0 0 0 0 0 0 0 0 0 0 0 0 0 0 0 0 0 0 0 0 0 0 0 0 0 0 
0 0 0 0 0 0 0 0 0 0 0 0 0 0 0 0 0 0 0 0 0 0 0 0 0 0 0 0 0 0 0 0 0 0 0 0 0 0 0 
0 0 0 0 0 0 0 0 0 0 0 0 0 0 0 0 0 0 0 0 0 0 0 0 0 0 0 0 0 0 0 0 0 0 0 0 0 0 0 
0 0 0 0 0 0 0 0 0 0 0 0 0 0 0 0 0 0 0 0 0 0 0 0 0 0 0 0 0 0 0 0 0 0 0 0 0 0 0 
0 0 0 0 0 0 0 0 0 0 14 7 0 120 62 0 155 81 0 152 79 0 152 80 75 162 69 
255 222 43 255 218 44 255 219 45 220 191 46 174 6 37 143 6 32 36 0 7 0 0 0 
0 0 0 0 0 0 0 0 0 0 0 0 0 0 0 0 0 0 0 0 0 0 0 0 0 0 0 0 0 0 0 0 0 0 0 0 0 0 0 
0 0 0 0 0 0 0 0 0 0 0 0 0 0 0 0 0 0 0 0 0 0 0 0 0 0 0 0 0 0 0 0 0 0 0 0 0 0 0 
0 0 0 0 0 0 0 0 0 0 0 0 0 0 0 0 0 0 0 0 0 0 0 0 0 0 0 0 0 0 0 0 0 0 0 0 0 0 0 
0 0 0 0 0 0 0 0 0 0 0 0 0 0 0 0 0 0 0 0 0 0 0 0 0 0 0 0 0 0 0 0 0 0 0 0 0 0 0 
0 0 0 0 0 0 0 0 0 0 0 0 0 0 0 0 0 0 0 0 0 0 0 0 0 0 0 0 0 0 0 0 0 0 0 0 0 0 0 
0 14 7 0 133 70 0 155 81 0 152 80 0 150 81 147 184 56 255 218 44 255 218 45 
255 231 45 186 95 36 171 6 37 102 2 25 8 0 1 0 0 0 0 0 0 0 0 0 0 0 0 0 0 0 
0 0 0 0 0 0 0 0 0 0 0 0 0 0 0 0 0 0 0 0 0 0 0 0 0 0 0 0 0 0 0 0 0 0 0 0 0 0 0 
0 0 0 0 0 0 0 0 0 0 0 0 0 0 0 0 0 0 0 0 0 0 0 0 0 0 0 0 0 0 0 0 0 0 0 0 0 0 0 
0 0 0 0 0 0 0 0 0 0 0 0 0 0 0 0 0 0 0 0 0 0 0 0 0 0 0 0 0 0 0 0 0 0 0 0 0 0 0 
0 0 0 0 0 0 0 0 0 0 0 0 0 0 0 0 0 0 0 0 0 0 0 0 0 0 0 0 0 0 0 0 0 0 0 0 0 0 0 
0 0 0 0 0 0 0 0 0 0 0 0 0 0 0 0 0 0 0 0 0 0 0 0 0 0 0 0 14 7 0 146 76 0 153 80 
0 152 80 17 157 77 183 189 50 255 220 43 255 221 44 247 212 45 174 6 37 
161 0 36 80 1 21 0 0 0 0 0 0 0 0 0 0 0 0 0 0 0 0 0 0 0 0 0 0 0 0 0 0 0 0 0 0 
0 0 0 0 0 0 0 0 0 0 0 0 0 0 0 0 0 0 0 0 0 0 0 0 0 0 0 0 0 0 0 0 0 0 0 0 0 0 0 
0 0 0 0 0 0 0 0 0 0 0 0 0 0 0 0 0 0 0 0 0 0 0 0 0 0 0 0 0 0 0 0 0 0 0 0 0 0 0 
0 0 0 0 0 0 0 0 0 0 0 0 0 0 0 0 0 0 0 0 0 0 0 0 0 0 0 0 0 0 0 0 0 0 0 0 0 0 0 
0 0 0 0 0 0 0 0 0 0 0 0 0 0 0 0 0 0 0 0 0 0 0 0 0 0 0 0 0 0 0 0 0 0 0 0 0 0 0 
0 0 0 0 0 0 0 0 0 0 0 0 0 0 0 16 43 24 0 145 76 0 154 80 0 152 80 40 167 76 
229 207 47 255 218 44 255 223 45 176 158 43 118 13 28 97 2 24 13 0 3 0 0 0 
0 0 0 0 0 0 0 0 0 0 0 0 0 0 0 0 0 0 0 0 0 0 0 0 0 0 0 0 0 0 0 0 0 0 0 0 0 0 0 
0 0 0 0 0 0 0 0 0 0 0 0 0 0 0 0 0 0 0 0 0 0 0 0 0 0 0 0 0 0 0 0 0 0 0 0 0 0 0 
0 0 0 0 0 0 0 0 0 0 0 0 0 0 0 0 0 0 0 0 0 0 0 0 0 0 0 0 0 0 0 0 0 0 0 0 0 0 0 
0 0 0 0 0 0 0 0 0 0 0 0 0 0 0 0 0 0 0 0 0 0 0 0 0 0 0 0 0 0 0 0 0 0 0 0 0 0 0 
0 0 0 0 0 0 0 0 0 0 0 0 0 0 0 0 0 0 0 0 0 0 0 0 0 0 0 0 0 0 0 0 0 0 0 0 0 0 0 
0 0 0 16 49 29 0 161 84 0 153 79 0 152 80 40 167 76 254 217 45 255 218 45 
252 216 44 125 106 44 0 0 0 0 0 0 0 0 0 0 0 0 0 0 0 0 0 0 0 0 0 0 0 0 0 0 0 
0 0 0 0 0 0 0 0 0 0 0 0 0 0 0 0 0 0 0 0 0 0 0 0 0 0 0 0 0 0 0 0 0 0 0 0 0 0 0 
0 0 0 0 0 0 0 0 0 0 0 0 0 0 0 0 0 0 0 0 0 0 0 0 0 0 0 0 0 0 0 0 0 0 0 0 0 0 0 
0 0 0 0 0 0 0 0 0 0 0 0 0 0 0 0 0 0 0 0 0 0 0 0 0 0 0 0 0 0 0 0 0 0 0 0 0 0 0 
0 0 0 0 0 0 0 0 0 0 0 0 0 0 0 0 0 0 0 0 0 0 0 0 0 0 0 0 0 0 0 0 0 0 0 0 0 0 0 
0 0 0 0 0 0 0 0 0 0 0 0 0 0 0 0 0 0 0 0 0 0 0 0 0 0 0 11 73 39 0 153 80 
0 152 79 0 150 81 113 176 60 255 218 44 255 223 45 232 205 46 51 57 28 
0 0 0 0 0 0 0 0 0 0 0 0 0 0 0 0 0 0 0 0 0 0 0 0 0 0 0 0 0 0 0 0 0 0 0 0 0 0 0 
0 0 0 0 0 0 0 0 0 0 0 0 0 0 0 0 0 0 0 0 0 0 0 0 0 0 0 0 0 0 0 0 0 0 0 0 0 0 0 
0 0 0 0 0 0 0 0 0 0 0 0 0 0 0 0 0 0 0 0 0 0 0 0 0 0 0 0 0 0 0 0 0 0 0 0 0 0 0 
0 0 0 0 0 0 0 0 0 0 0 0 0 0 0 0 0 0 0 0 0 0 0 0 0 0 0 0 0 0 0 0 0 0 0 0 0 0 0 
0 0 0 0 0 0 0 0 0 0 0 0 0 0 0 0 0 0 0 0 0 0 0 0 0 0 0 0 0 0 0 0 0 0 0 0 0 0 0 
0 0 0 0 0 0 0 0 0 0 0 0 0 0 0 8 85 44 0 155 81 0 153 80 0 150 78 130 165 55 
254 217 44 247 212 45 196 173 49 0 3 1 0 0 0 0 0 0 0 0 0 0 0 0 0 0 0 0 0 0 
0 0 0 0 0 0 0 0 0 0 0 0 0 0 0 0 0 0 0 0 0 0 0 0 0 0 0 0 0 0 0 0 0 0 0 0 0 0 0 
0 0 0 0 0 0 0 0 0 0 0 0 0 0 0 0 0 0 0 0 0 0 0 0 0 0 0 0 0 0 0 0 0 0 0 0 0 0 0 
0 0 0 0 0 0 0 0 0 0 0 0 0 0 0 0 0 0 0 0 0 0 0 0 0 0 0 0 0 0 0 0 0 0 0 0 0 0 0 
0 0 0 0 0 0 0 0 0 0 0 0 0 0 0 0 0 0 0 0 0 0 0 0 0 0 0 0 0 0 0 0 0 0 0 0 0 0 0 
0 0 0 0 0 0 0 0 0 0 0 0 0 0 0 0 0 0 0 0 0 0 0 0 0 0 0 0 0 0 0 0 0 0 3 1 7 100 53 
0 158 82 0 154 80 0 143 75 16 43 24 0 0 0 0 3 1 18 20 12 0 0 0 0 0 0 0 0 0 
0 0 0 0 0 0 0 0 0 0 0 0 0 0 0 0 0 0 0 0 0 0 0 0 0 0 0 0 0 0 0 0 0 0 0 0 0 0 0 
0 0 0 0 0 0 0 0 0 0 0 0 0 0 0 0 0 0 0 0 0 0 0 0 0 0 0 0 0 0 0 0 0 0 0 0 0 0 0 
0 0 0 0 0 0 0 0 0 0 0 0 0 0 0 0 0 0 0 0 0 0 0 0 0 0 0 0 0 0 0 0 0 0 0 0 0 0 0 
0 0 0 0 0 0 0 0 0 0 0 0 0 0 0 0 0 0 0 0 0 0 0 0 0 0 0 0 0 0 0 0 0 0 0 0 0 0 0 
0 0 0 0 0 0 0 0 0 0 0 0 0 0 0 0 0 0 0 0 0 0 0 0 0 0 0 0 0 0 0 0 0 0 0 0 0 0 0 
0 0 0 0 0 0 0 0 0 0 122 64 0 153 80 0 153 80 0 133 70 0 11 5 0 0 0 0 0 0 0 0 0 
0 0 0 0 0 0 0 0 0 0 0 0 0 0 0 0 0 0 0 0 0 0 0 0 0 0 0 0 0 0 0 0 0 0 0 0 0 0 0 
0 0 0 0 0 0 0 0 0 0 0 0 0 0 0 0 0 0 0 0 0 0 0 0 0 0 0 0 0 0 0 0 0 0 0 0 0 0 0 
0 0 0 0 0 0 0 0 0 0 0 0 0 0 0 0 0 0 0 0 0 0 0 0 0 0 0 0 0 0 0 0 0 0 0 0 0 0 0 
0 0 0 0 0 0 0 0 0 0 0 0 0 0 0 0 0 0 0 0 0 0 0 0 0 0 0 0 0 0 0 0 0 0 0 0 0 0 0 
0 0 0 0 0 0 0 0 0 0 0 0 0 0 0 0 0 0 0 0 0 0 0 0 0 0 0 0 0 0 0 0 0 0 0 0 0 0 0 
0 0 0 0 0 0 0 0 0 0 0 0 0 0 0 0 14 7 0 122 64 0 157 82 0 157 82 7 100 53 
0 3 1 0 0 0 0 0 0 0 0 0 0 0 0 0 0 0 0 0 0 0 0 0 0 0 0 0 0 0 0 0 0 0 0 0 0 0 0 
0 0 0 0 0 0 0 0 0 0 0 0 0 0 0 0 0 0 0 0 0 0 0 0 0 0 0 0 0 0 0 0 0 0 0 0 0 0 0 
0 0 0 0 0 0 0 0 0 0 0 0 0 0 0 0 0 0 0 0 0 0 0 0 0 0 0 0 0 0 0 0 0 0 0 0 0 0 0 
0 0 0 0 0 0 0 0 0 0 0 0 0 0 0 0 0 0 0 0 0 0 0 0 0 0 0 0 0 0 0 0 0 0 0 0 0 0 0 
0 0 0 0 0 0 0 0 0 0 0 0 0 0 0 0 0 0 0 0 0 0 0 0 0 0 0 0 0 0 0 0 0 0 0 0 0 0 0 
0 0 0 0 0 0 0 0 0 0 0 0 0 0 0 0 0 0 0 0 0 0 0 0 0 0 0 0 11 5 0 150 78 0 153 80 
0 160 83 11 73 39 0 0 0 0 0 0 0 0 0 0 0 0 0 0 0 0 0 0 0 0 0 0 0 0 0 0 0 0 0 0 
0 0 0 0 0 0 0 0 0 0 0 0 0 0 0 0 0 0 0 0 0 0 0 0 0 0 0 0 0 0 0 0 0 0 0 0 0 0 0 
0 0 0 0 0 0 0 0 0 0 0 0 0 0 0 0 0 0 0 0 0 0 0 0 0 0 0 0 0 0 0 0 0 0 0 0 0 0 0 
0 0 0 0 0 0 0 0 0 0 0 0 0 0 0 0 0 0 0 0 0 0 0 0 0 0 0 0 0 0 0 0 0 0 0 0 0 0 0 
0 0 0 0 0 0 0 0 0 0 0 0 0 0 0 0 0 0 0 0 0 0 0 0 0 0 0 0 0 0 0 0 0 0 0 0 0 0 0 
0 0 0 0 0 0 0 0 0 0 0 0 0 0 0 0 0 0 0 0 0 0 0 0 0 0 0 0 0 0 0 0 0 0 0 0 0 11 5 
0 150 78 0 158 82 0 133 70 16 49 29 0 0 0 0 0 0 0 0 0 0 0 0 0 0 0 0 0 0 0 0 0 
0 0 0 0 0 0 0 0 0 0 0 0 0 0 0 0 0 0 0 0 0 0 0 0 0 0 0 0 0 0 0 0 0 0 0 0 0 0 0 
0 0 0 0 0 0 0 0 0 0 0 0 0 0 0 0 0 0 0 0 0 0 0 0 0 0 0 0 0 0 0 0 0 0 0 0 0 0 0 
0 0 0 0 0 0 0 0 0 0 0 0 0 0 0 0 0 0 0 0 0 0 0 0 0 0 0 0 0 0 0 0 0 0 0 0 0 0 0 
0 0 0 0 0 0 0 0 0 0 0 0 0 0 0 0 0 0 0 0 0 0 0 0 0 0 0 0 0 0 0 0 0 0 0 0 0 0 0 
0 0 0 0 0 0 0 0 0 0 0 0 0 0 0 0 0 0 0 0 0 0 0 0 0 0 0 0 0 0 0 0 0 0 0 0 0 0 0 
0 0 0 0 0 0 0 0 0 0 0 0 16 43 24 0 14 7 0 11 5 0 0 0 0 0 0 0 0 0 0 0 0 0 0 0 
0 0 0 0 0 0 0 0 0 0 0 0 0 0 0 0 0 0 0 0 0 0 0 0 0 0 0 0 0 0 0 0 0 0 0 0 0 0 0 
0 0 0 0 0 0 0 0 0 0 0 0 0 0 0 0 0 0 0 0 0 0 0 0 0 0 0 0 0 0 0 0 0 0 0 0 0 0 0 
0 0 0 0 0 0 0 0 0 0 0 0 0 0 0 0 0 0 0 0 0 0 0 0 0 0 0 0 0 0 0 0 0 0 0 0 0 0 0 
0 0 0 0 0 0 0 0 0 0 0 0 0 0 0 0 0 0 0 0 0 0 0 0 0 0 0 0 0 0 0 0 0 0 0 0 0 0 0 
0 0 0 0 0 0 0 0 0 0 0 0 0 0 0 0 0 0 0 0 0 0 0 0 0 0 0 0 0 0 0 0 0 0 0 0 0 0 0 
0 0 0 0 0 0 0 0 0 0 0 0 0 0 0 0 0 0 0 0 0 0 0 0 0 0 0 0 0 0 0 0 0 0 0 0 0 0 0 
0 0 0 0 0 0 0 0 0 0 0 0 0 0 0 0 0 0 0 0 0 0 0 0 0 0 0 0 0 0 0 0 0 0 0 0 0 0 0 
0 0 0 0 0 0 0 0 0 0 0 0 0 0 0 0 0 0 0 0 0 0 0 0 0 0 0 0 0 0 0 0 0 0 0 0 0 0 0 
0 0 0 0 0 0 0 0 0 0 0 0 0 0 0 0 0 0 0 0 0 0 0 0 0 0 0 0 0 0 0 0 0 0 0 0 0 0 0 
0 0 0 0 0 0 0 0 0 0 0 0 0 0 0 0 0 0 0 0 0 0 0 0 0 0 0 0 0 0 0 0 0 0 0 0 0 0 0 
0 0 0 0 0 0 0 0 0 0 0 0 0 0 0 0 0 0 0 0 0 0 0 0 0 0 0 0 0 0 0 0 0 0 0 0 0 0 0 
0 0 0 0 0 0 0 0 0 0 0 0 0 0 0 0 0 0 0 0 0 0 0 0 0 0 0 0 0 0 0 0 0 0 0 0 0 0 0 
0 0 0 0 0 0 0 0 0 0 0 0 0 0 0 0 0 0 0 0 0 0 0 0 0 0 0 0 0 0 0 0 0 0 0 0 0 0 0 
0 0 0 0 0 0 0 0 0 0 0 0 0 0 0 0 0 0 0 0 0 0 0 0 0 0 0 0 0 0 0 0 0 0 0 0 0 0 0 
0 0 0 0 0 0 0 0 0 0 0 0 0 0 0 0 0 0 0 0 0 0 0 0 0 0 0 0 0 0 0 0 0 0 0 0 0 0 0 
0 0 0 0 0 0 0 0 0 0 0 0 0 0 0 0 0 0 0 0 0 0 0 0 0 0 0 0 0 0 0 0 0 0 0 0 0 0 0 
0 0 0 0 0 0 0 0 0 0 0 0 0 0 0 0 0 0 0 0 0 0 0 0 0 0 0 0 0 0 0 0 0 0 0 0 0 0 0 
0 0 0 0 0 0 0 0 0 
